<?xml version="1.0" encoding="UTF-8"?>
<svg xmlns="http://www.w3.org/2000/svg" xmlns:xlink="http://www.w3.org/1999/xlink" width="2500" height="2500" viewBox="0 0 2500 2500">
<defs>
<clipPath id="clip-0">

</clipPath>
<clipPath id="clip-1">
<path clip-rule="evenodd" d="M 906.101562 1386.238281 C 906.101562 1408.839844 924.421875 1427.160156 947.019531 1427.160156 C 969.621094 1427.160156 987.941406 1408.839844 987.941406 1386.238281 C 987.941406 1363.640625 969.621094 1345.320312 947.019531 1345.320312 C 924.421875 1345.320312 906.101562 1363.640625 906.101562 1386.238281 Z M 1045.808594 1399.679688 C 1045.808594 1429.789062 1070.21875 1454.210938 1100.328125 1454.210938 C 1130.449219 1454.210938 1154.859375 1429.789062 1154.859375 1399.679688 C 1154.859375 1369.558594 1130.449219 1345.148438 1100.328125 1345.148438 C 1070.21875 1345.148438 1045.808594 1369.558594 1045.808594 1399.679688 Z M 1134.5 1502.96875 C 1134.5 1480.921875 1152.371094 1463.039062 1174.421875 1463.039062 C 1196.46875 1463.039062 1214.351562 1480.921875 1214.351562 1502.96875 C 1214.351562 1525.019531 1196.46875 1542.898438 1174.421875 1542.898438 C 1152.371094 1542.898438 1134.5 1525.019531 1134.5 1502.96875 Z M 873.207031 1214.480469 C 873.207031 1244.601562 897.617188 1269.011719 927.734375 1269.011719 C 957.847656 1269.011719 982.261719 1244.601562 982.261719 1214.480469 C 982.261719 1184.371094 957.847656 1159.949219 927.734375 1159.949219 C 897.617188 1159.949219 873.207031 1184.371094 873.207031 1214.480469 Z M 777.390625 1286.210938 C 777.390625 1265.710938 794.007812 1249.089844 814.507812 1249.089844 C 835.007812 1249.089844 851.625 1265.710938 851.625 1286.210938 C 851.625 1306.710938 835.007812 1323.328125 814.507812 1323.328125 C 794.007812 1323.328125 777.390625 1306.710938 777.390625 1286.210938 Z M 780.292969 1160.140625 C 780.292969 1143.078125 794.121094 1129.25 811.179688 1129.25 C 828.238281 1129.25 842.070312 1143.078125 842.070312 1160.140625 C 842.070312 1177.199219 828.238281 1191.03125 811.179688 1191.03125 C 794.121094 1191.03125 780.292969 1177.199219 780.292969 1160.140625 Z M 1013.171875 1514.078125 C 1013.171875 1505.121094 1020.429688 1497.859375 1029.390625 1497.859375 C 1038.351562 1497.859375 1045.609375 1505.121094 1045.609375 1514.078125 C 1045.609375 1523.039062 1038.351562 1530.308594 1029.390625 1530.308594 C 1020.429688 1530.308594 1013.171875 1523.039062 1013.171875 1514.078125 Z M 1250.019531 1270.730469 C 1250.019531 1282.671875 1259.699219 1292.359375 1271.648438 1292.359375 C 1283.589844 1292.359375 1293.28125 1282.671875 1293.28125 1270.730469 C 1293.28125 1258.78125 1283.589844 1249.101562 1271.648438 1249.101562 C 1259.699219 1249.101562 1250.019531 1258.78125 1250.019531 1270.730469 Z M 967.664062 983.988281 C 967.664062 775.519531 1136.660156 606.511719 1345.128906 606.511719 C 1553.609375 606.511719 1722.609375 775.519531 1722.609375 983.988281 C 1722.609375 1192.460938 1553.609375 1361.460938 1345.128906 1361.460938 C 1334.140625 1361.460938 1323.25 1360.988281 1312.5 1360.070312 C 1313.679688 1364.75 1314.308594 1369.660156 1314.308594 1374.710938 C 1314.308594 1407.710938 1287.550781 1434.46875 1254.550781 1434.46875 C 1221.550781 1434.46875 1194.800781 1407.710938 1194.800781 1374.710938 C 1194.800781 1341.820312 1221.289062 1329.730469 1221.289062 1296.839844 C 1221.289062 1263.839844 1194.25 1232.75 1161.53125 1237.078125 C 1124.738281 1241.949219 1115.03125 1258.230469 1106.050781 1286.71875 C 1098.410156 1310.921875 1075.78125 1328.46875 1049.050781 1328.46875 C 1016.050781 1328.46875 989.296875 1301.71875 989.296875 1268.710938 C 989.296875 1240.871094 1008.351562 1217.46875 1034.121094 1210.839844 C 1063.691406 1203.238281 1102.320312 1209.109375 1102.320312 1151.898438 C 1102.320312 1118.898438 1075.558594 1092.148438 1042.558594 1092.148438 C 1004.308594 1092.148438 996.457031 1129.460938 956.03125 1129.460938 C 923.03125 1129.460938 896.277344 1102.710938 896.277344 1069.710938 C 896.277344 1036.699219 923.03125 1009.949219 956.03125 1009.949219 C 960.359375 1009.949219 964.570312 1010.410156 968.636719 1011.289062 C 967.988281 1002.269531 967.664062 993.171875 967.664062 983.988281 "/>
</clipPath>
<linearGradient id="linear-pattern-0" gradientUnits="userSpaceOnUse" x1="-0.475716" y1="0" x2="1.839015" y2="0" gradientTransform="matrix(-380.953, 428.871, -428.871, -380.953, 1517.81, 789.59)">
<stop offset="0" stop-color="rgb(15.713501%, 18.997192%, 43.086243%)" stop-opacity="1"/>
<stop offset="0.125" stop-color="rgb(15.713501%, 18.997192%, 43.086243%)" stop-opacity="1"/>
<stop offset="0.1875" stop-color="rgb(15.713501%, 18.997192%, 43.086243%)" stop-opacity="1"/>
<stop offset="0.203125" stop-color="rgb(15.713501%, 18.997192%, 43.086243%)" stop-opacity="1"/>
<stop offset="0.207031" stop-color="rgb(15.789795%, 18.89801%, 43.127441%)" stop-opacity="1"/>
<stop offset="0.210937" stop-color="rgb(15.864563%, 18.797302%, 43.16864%)" stop-opacity="1"/>
<stop offset="0.214844" stop-color="rgb(16.00647%, 18.692017%, 43.315125%)" stop-opacity="1"/>
<stop offset="0.21875" stop-color="rgb(16.148376%, 18.583679%, 43.458557%)" stop-opacity="1"/>
<stop offset="0.222656" stop-color="rgb(16.264343%, 18.435669%, 43.525696%)" stop-opacity="1"/>
<stop offset="0.226562" stop-color="rgb(16.381836%, 18.286133%, 43.591309%)" stop-opacity="1"/>
<stop offset="0.230469" stop-color="rgb(16.555786%, 18.095398%, 43.685913%)" stop-opacity="1"/>
<stop offset="0.234375" stop-color="rgb(16.731262%, 17.901611%, 43.777466%)" stop-opacity="1"/>
<stop offset="0.238281" stop-color="rgb(16.80603%, 17.7948%, 43.836975%)" stop-opacity="1"/>
<stop offset="0.242188" stop-color="rgb(16.882324%, 17.687988%, 43.894958%)" stop-opacity="1"/>
<stop offset="0.246094" stop-color="rgb(17.00592%, 17.654419%, 43.959045%)" stop-opacity="1"/>
<stop offset="0.25" stop-color="rgb(17.127991%, 17.62085%, 44.021606%)" stop-opacity="1"/>
<stop offset="0.253906" stop-color="rgb(17.507935%, 17.529297%, 44.073486%)" stop-opacity="1"/>
<stop offset="0.257812" stop-color="rgb(17.887878%, 17.437744%, 44.12384%)" stop-opacity="1"/>
<stop offset="0.261719" stop-color="rgb(18.367004%, 17.358398%, 44.245911%)" stop-opacity="1"/>
<stop offset="0.265625" stop-color="rgb(18.844604%, 17.280579%, 44.364929%)" stop-opacity="1"/>
<stop offset="0.269531" stop-color="rgb(19.18335%, 17.207336%, 44.442749%)" stop-opacity="1"/>
<stop offset="0.273437" stop-color="rgb(19.522095%, 17.13562%, 44.519043%)" stop-opacity="1"/>
<stop offset="0.277344" stop-color="rgb(19.9646%, 17.027283%, 44.561768%)" stop-opacity="1"/>
<stop offset="0.28125" stop-color="rgb(20.404053%, 16.918945%, 44.602966%)" stop-opacity="1"/>
<stop offset="0.285156" stop-color="rgb(20.94574%, 16.749573%, 44.493103%)" stop-opacity="1"/>
<stop offset="0.289062" stop-color="rgb(21.482849%, 16.5802%, 44.384766%)" stop-opacity="1"/>
<stop offset="0.292969" stop-color="rgb(21.948242%, 16.485596%, 44.444275%)" stop-opacity="1"/>
<stop offset="0.296875" stop-color="rgb(22.413635%, 16.387939%, 44.503784%)" stop-opacity="1"/>
<stop offset="0.300781" stop-color="rgb(22.900391%, 16.308594%, 44.546509%)" stop-opacity="1"/>
<stop offset="0.304688" stop-color="rgb(23.388672%, 16.227722%, 44.589233%)" stop-opacity="1"/>
<stop offset="0.308594" stop-color="rgb(23.84491%, 16.123962%, 44.566345%)" stop-opacity="1"/>
<stop offset="0.3125" stop-color="rgb(24.299622%, 16.018677%, 44.544983%)" stop-opacity="1"/>
<stop offset="0.316406" stop-color="rgb(24.855042%, 15.892029%, 44.517517%)" stop-opacity="1"/>
<stop offset="0.320312" stop-color="rgb(25.410461%, 15.765381%, 44.490051%)" stop-opacity="1"/>
<stop offset="0.324219" stop-color="rgb(25.897217%, 15.647888%, 44.522095%)" stop-opacity="1"/>
<stop offset="0.328125" stop-color="rgb(26.382446%, 15.530396%, 44.554138%)" stop-opacity="1"/>
<stop offset="0.332031" stop-color="rgb(26.971436%, 15.394592%, 44.532776%)" stop-opacity="1"/>
<stop offset="0.335938" stop-color="rgb(27.560425%, 15.258789%, 44.511414%)" stop-opacity="1"/>
<stop offset="0.339844" stop-color="rgb(28.025818%, 15.159607%, 44.50531%)" stop-opacity="1"/>
<stop offset="0.34375" stop-color="rgb(28.491211%, 15.058899%, 44.497681%)" stop-opacity="1"/>
<stop offset="0.347656" stop-color="rgb(29.034424%, 14.970398%, 44.573975%)" stop-opacity="1"/>
<stop offset="0.351562" stop-color="rgb(29.577637%, 14.881897%, 44.648743%)" stop-opacity="1"/>
<stop offset="0.355469" stop-color="rgb(30.183411%, 14.733887%, 44.692993%)" stop-opacity="1"/>
<stop offset="0.359375" stop-color="rgb(30.787659%, 14.585876%, 44.735718%)" stop-opacity="1"/>
<stop offset="0.363281" stop-color="rgb(31.239319%, 14.472961%, 44.787598%)" stop-opacity="1"/>
<stop offset="0.367187" stop-color="rgb(31.689453%, 14.360046%, 44.837952%)" stop-opacity="1"/>
<stop offset="0.371094" stop-color="rgb(32.133484%, 14.286804%, 44.915771%)" stop-opacity="1"/>
<stop offset="0.375" stop-color="rgb(32.579041%, 14.213562%, 44.992065%)" stop-opacity="1"/>
<stop offset="0.378906" stop-color="rgb(33.053589%, 14.109802%, 45.053101%)" stop-opacity="1"/>
<stop offset="0.382812" stop-color="rgb(33.526611%, 14.006042%, 45.114136%)" stop-opacity="1"/>
<stop offset="0.386719" stop-color="rgb(34.184265%, 13.896179%, 45.191956%)" stop-opacity="1"/>
<stop offset="0.390625" stop-color="rgb(34.844971%, 13.787842%, 45.26825%)" stop-opacity="1"/>
<stop offset="0.394531" stop-color="rgb(35.392761%, 13.705444%, 45.343018%)" stop-opacity="1"/>
<stop offset="0.398438" stop-color="rgb(35.942078%, 13.623047%, 45.41626%)" stop-opacity="1"/>
<stop offset="0.402344" stop-color="rgb(36.505127%, 13.505554%, 45.41626%)" stop-opacity="1"/>
<stop offset="0.40625" stop-color="rgb(37.06665%, 13.386536%, 45.41626%)" stop-opacity="1"/>
<stop offset="0.410156" stop-color="rgb(37.568665%, 13.322449%, 45.506287%)" stop-opacity="1"/>
<stop offset="0.414062" stop-color="rgb(38.070679%, 13.256836%, 45.596313%)" stop-opacity="1"/>
<stop offset="0.417969" stop-color="rgb(38.735962%, 13.13324%, 45.587158%)" stop-opacity="1"/>
<stop offset="0.421875" stop-color="rgb(39.401245%, 13.009644%, 45.576477%)" stop-opacity="1"/>
<stop offset="0.425781" stop-color="rgb(39.982605%, 12.910461%, 45.587158%)" stop-opacity="1"/>
<stop offset="0.429687" stop-color="rgb(40.563965%, 12.811279%, 45.597839%)" stop-opacity="1"/>
<stop offset="0.433594" stop-color="rgb(41.165161%, 12.677002%, 45.655823%)" stop-opacity="1"/>
<stop offset="0.4375" stop-color="rgb(41.766357%, 12.542725%, 45.713806%)" stop-opacity="1"/>
<stop offset="0.441406" stop-color="rgb(42.332458%, 12.452698%, 45.794678%)" stop-opacity="1"/>
<stop offset="0.445312" stop-color="rgb(42.900085%, 12.361145%, 45.875549%)" stop-opacity="1"/>
<stop offset="0.449219" stop-color="rgb(43.391418%, 12.243652%, 45.933533%)" stop-opacity="1"/>
<stop offset="0.453125" stop-color="rgb(43.882751%, 12.124634%, 45.991516%)" stop-opacity="1"/>
<stop offset="0.457031" stop-color="rgb(44.567871%, 12.014771%, 46.073914%)" stop-opacity="1"/>
<stop offset="0.460937" stop-color="rgb(45.254517%, 11.904907%, 46.154785%)" stop-opacity="1"/>
<stop offset="0.464844" stop-color="rgb(45.875549%, 11.810303%, 46.238708%)" stop-opacity="1"/>
<stop offset="0.46875" stop-color="rgb(46.496582%, 11.715698%, 46.322632%)" stop-opacity="1"/>
<stop offset="0.472656" stop-color="rgb(47.15271%, 11.611938%, 46.406555%)" stop-opacity="1"/>
<stop offset="0.476562" stop-color="rgb(47.810364%, 11.509705%, 46.488953%)" stop-opacity="1"/>
<stop offset="0.480469" stop-color="rgb(48.477173%, 11.402893%, 46.569824%)" stop-opacity="1"/>
<stop offset="0.484375" stop-color="rgb(49.143982%, 11.296082%, 46.652222%)" stop-opacity="1"/>
<stop offset="0.488281" stop-color="rgb(49.810791%, 11.155701%, 46.653748%)" stop-opacity="1"/>
<stop offset="0.492187" stop-color="rgb(50.476074%, 11.013794%, 46.656799%)" stop-opacity="1"/>
<stop offset="0.496094" stop-color="rgb(51.194763%, 10.876465%, 46.783447%)" stop-opacity="1"/>
<stop offset="0.5" stop-color="rgb(51.916504%, 10.736084%, 46.910095%)" stop-opacity="1"/>
<stop offset="0.503906" stop-color="rgb(52.497864%, 10.632324%, 47.064209%)" stop-opacity="1"/>
<stop offset="0.507812" stop-color="rgb(53.08075%, 10.527039%, 47.216797%)" stop-opacity="1"/>
<stop offset="0.511719" stop-color="rgb(53.582764%, 10.417175%, 47.232056%)" stop-opacity="1"/>
<stop offset="0.515625" stop-color="rgb(54.083252%, 10.305786%, 47.245789%)" stop-opacity="1"/>
<stop offset="0.519531" stop-color="rgb(54.721069%, 10.189819%, 47.412109%)" stop-opacity="1"/>
<stop offset="0.523437" stop-color="rgb(55.360413%, 10.073853%, 47.57843%)" stop-opacity="1"/>
<stop offset="0.527344" stop-color="rgb(56.164551%, 9.945679%, 47.75238%)" stop-opacity="1"/>
<stop offset="0.53125" stop-color="rgb(56.970215%, 9.817505%, 47.926331%)" stop-opacity="1"/>
<stop offset="0.535156" stop-color="rgb(57.717896%, 9.683228%, 47.993469%)" stop-opacity="1"/>
<stop offset="0.539062" stop-color="rgb(58.465576%, 9.54895%, 48.059082%)" stop-opacity="1"/>
<stop offset="0.542969" stop-color="rgb(59.115601%, 9.394836%, 48.028564%)" stop-opacity="1"/>
<stop offset="0.546875" stop-color="rgb(59.764099%, 9.242249%, 47.999573%)" stop-opacity="1"/>
<stop offset="0.550781" stop-color="rgb(60.247803%, 9.16748%, 48.069763%)" stop-opacity="1"/>
<stop offset="0.554687" stop-color="rgb(60.731506%, 9.091187%, 48.139954%)" stop-opacity="1"/>
<stop offset="0.558594" stop-color="rgb(61.36322%, 8.932495%, 48.199463%)" stop-opacity="1"/>
<stop offset="0.5625" stop-color="rgb(61.994934%, 8.773804%, 48.257446%)" stop-opacity="1"/>
<stop offset="0.566406" stop-color="rgb(62.583923%, 8.674622%, 48.326111%)" stop-opacity="1"/>
<stop offset="0.570312" stop-color="rgb(63.175964%, 8.573914%, 48.39325%)" stop-opacity="1"/>
<stop offset="0.574219" stop-color="rgb(63.751221%, 8.451843%, 48.402405%)" stop-opacity="1"/>
<stop offset="0.578125" stop-color="rgb(64.326477%, 8.329773%, 48.410034%)" stop-opacity="1"/>
<stop offset="0.582031" stop-color="rgb(65.109253%, 8.192444%, 48.48938%)" stop-opacity="1"/>
<stop offset="0.585938" stop-color="rgb(65.890503%, 8.055115%, 48.568726%)" stop-opacity="1"/>
<stop offset="0.589844" stop-color="rgb(66.60614%, 7.907104%, 48.588562%)" stop-opacity="1"/>
<stop offset="0.59375" stop-color="rgb(67.323303%, 7.757568%, 48.608398%)" stop-opacity="1"/>
<stop offset="0.597656" stop-color="rgb(67.979431%, 7.589722%, 48.635864%)" stop-opacity="1"/>
<stop offset="0.601562" stop-color="rgb(68.634033%, 7.420349%, 48.66333%)" stop-opacity="1"/>
<stop offset="0.605469" stop-color="rgb(69.033813%, 7.321167%, 48.664856%)" stop-opacity="1"/>
<stop offset="0.609375" stop-color="rgb(69.432068%, 7.221985%, 48.664856%)" stop-opacity="1"/>
<stop offset="0.613281" stop-color="rgb(70.063782%, 7.072449%, 48.643494%)" stop-opacity="1"/>
<stop offset="0.617188" stop-color="rgb(70.69397%, 6.922913%, 48.620605%)" stop-opacity="1"/>
<stop offset="0.621094" stop-color="rgb(71.44165%, 6.768799%, 48.757935%)" stop-opacity="1"/>
<stop offset="0.625" stop-color="rgb(72.190857%, 6.614685%, 48.895264%)" stop-opacity="1"/>
<stop offset="0.628906" stop-color="rgb(72.686768%, 6.495667%, 48.872375%)" stop-opacity="1"/>
<stop offset="0.632812" stop-color="rgb(73.181152%, 6.376648%, 48.851013%)" stop-opacity="1"/>
<stop offset="0.636719" stop-color="rgb(73.478699%, 6.306458%, 48.83728%)" stop-opacity="1"/>
<stop offset="0.640625" stop-color="rgb(73.777771%, 6.234741%, 48.823547%)" stop-opacity="1"/>
<stop offset="0.65625" stop-color="rgb(73.777771%, 6.234741%, 48.823547%)" stop-opacity="1"/>
<stop offset="0.6875" stop-color="rgb(73.777771%, 6.234741%, 48.823547%)" stop-opacity="1"/>
<stop offset="0.75" stop-color="rgb(73.777771%, 6.234741%, 48.823547%)" stop-opacity="1"/>
<stop offset="1" stop-color="rgb(73.777771%, 6.234741%, 48.823547%)" stop-opacity="1"/>
</linearGradient>
<clipPath id="clip-2">
<path clip-rule="nonzero" d="M 1055 785 L 1717 785 L 1717 1433 L 1055 1433 Z M 1055 785 "/>
</clipPath>
<clipPath id="clip-3">
<path clip-rule="evenodd" d="M 1250.019531 1270.730469 C 1250.019531 1282.671875 1259.699219 1292.359375 1271.648438 1292.359375 C 1283.589844 1292.359375 1293.28125 1282.671875 1293.28125 1270.730469 C 1293.28125 1258.78125 1283.589844 1249.101562 1271.648438 1249.101562 C 1259.699219 1249.101562 1250.019531 1258.78125 1250.019531 1270.730469 Z M 1716.398438 1052.46875 C 1684.179688 1228.238281 1530.21875 1361.460938 1345.128906 1361.460938 C 1334.140625 1361.460938 1323.25 1360.988281 1312.5 1360.070312 C 1313.679688 1364.75 1314.308594 1369.660156 1314.308594 1374.710938 C 1314.308594 1402.238281 1295.699219 1425.410156 1270.378906 1432.351562 C 1244.601562 1422.578125 1220.339844 1409.730469 1198.058594 1394.230469 C 1195.949219 1388.121094 1194.800781 1381.550781 1194.800781 1374.710938 C 1194.800781 1341.820312 1221.289062 1329.730469 1221.289062 1296.839844 C 1221.289062 1263.839844 1194.25 1232.75 1161.53125 1237.078125 C 1124.738281 1241.949219 1115.03125 1258.230469 1106.050781 1286.71875 C 1105.28125 1289.148438 1104.371094 1291.5 1103.308594 1293.78125 C 1086.601562 1266.460938 1073.710938 1236.550781 1065.359375 1204.789062 C 1085.378906 1200 1102.320312 1189.769531 1102.320312 1151.898438 C 1102.320312 1123.308594 1082.21875 1099.398438 1055.378906 1093.53125 C 1068.671875 921.03125 1212.839844 785.179688 1388.761719 785.179688 C 1550.449219 785.179688 1685.328125 899.949219 1716.398438 1052.46875 "/>
</clipPath>
<linearGradient id="linear-pattern-1" gradientUnits="userSpaceOnUse" x1="-0.135788" y1="0" x2="1.541613" y2="0" gradientTransform="matrix(-365.363, 411.32, -411.32, -365.363, 1619.93, 799.41)">
<stop offset="0" stop-color="rgb(15.713501%, 18.997192%, 43.086243%)" stop-opacity="1"/>
<stop offset="0.0625" stop-color="rgb(15.713501%, 18.997192%, 43.086243%)" stop-opacity="1"/>
<stop offset="0.078125" stop-color="rgb(15.713501%, 18.997192%, 43.086243%)" stop-opacity="1"/>
<stop offset="0.0820313" stop-color="rgb(15.763855%, 18.93158%, 43.113708%)" stop-opacity="1"/>
<stop offset="0.0859375" stop-color="rgb(15.814209%, 18.864441%, 43.141174%)" stop-opacity="1"/>
<stop offset="0.0898438" stop-color="rgb(15.905762%, 18.774414%, 43.217468%)" stop-opacity="1"/>
<stop offset="0.09375" stop-color="rgb(15.997314%, 18.684387%, 43.292236%)" stop-opacity="1"/>
<stop offset="0.0976563" stop-color="rgb(16.098022%, 18.605042%, 43.39447%)" stop-opacity="1"/>
<stop offset="0.101563" stop-color="rgb(16.200256%, 18.52417%, 43.49823%)" stop-opacity="1"/>
<stop offset="0.105469" stop-color="rgb(16.279602%, 18.417358%, 43.539429%)" stop-opacity="1"/>
<stop offset="0.109375" stop-color="rgb(16.360474%, 18.309021%, 43.579102%)" stop-opacity="1"/>
<stop offset="0.113281" stop-color="rgb(16.496277%, 18.165588%, 43.65387%)" stop-opacity="1"/>
<stop offset="0.117188" stop-color="rgb(16.633606%, 18.019104%, 43.727112%)" stop-opacity="1"/>
<stop offset="0.121094" stop-color="rgb(16.726685%, 17.901611%, 43.774414%)" stop-opacity="1"/>
<stop offset="0.125" stop-color="rgb(16.818237%, 17.782593%, 43.82019%)" stop-opacity="1"/>
<stop offset="0.132813" stop-color="rgb(16.848755%, 17.735291%, 43.865967%)" stop-opacity="1"/>
<stop offset="0.140625" stop-color="rgb(16.957092%, 17.6651%, 43.95752%)" stop-opacity="1"/>
<stop offset="0.144531" stop-color="rgb(17.266846%, 17.58728%, 44.044495%)" stop-opacity="1"/>
<stop offset="0.148438" stop-color="rgb(17.498779%, 17.530823%, 44.082642%)" stop-opacity="1"/>
<stop offset="0.152344" stop-color="rgb(17.823792%, 17.453003%, 44.117737%)" stop-opacity="1"/>
<stop offset="0.15625" stop-color="rgb(18.148804%, 17.375183%, 44.151306%)" stop-opacity="1"/>
<stop offset="0.160156" stop-color="rgb(18.504333%, 17.326355%, 44.261169%)" stop-opacity="1"/>
<stop offset="0.164063" stop-color="rgb(18.859863%, 17.279053%, 44.371033%)" stop-opacity="1"/>
<stop offset="0.167969" stop-color="rgb(19.113159%, 17.227173%, 44.430542%)" stop-opacity="1"/>
<stop offset="0.171875" stop-color="rgb(19.366455%, 17.173767%, 44.490051%)" stop-opacity="1"/>
<stop offset="0.175781" stop-color="rgb(19.639587%, 17.108154%, 44.526672%)" stop-opacity="1"/>
<stop offset="0.179688" stop-color="rgb(19.914246%, 17.041016%, 44.564819%)" stop-opacity="1"/>
<stop offset="0.183594" stop-color="rgb(20.265198%, 16.944885%, 44.55719%)" stop-opacity="1"/>
<stop offset="0.1875" stop-color="rgb(20.61615%, 16.850281%, 44.549561%)" stop-opacity="1"/>
<stop offset="0.191406" stop-color="rgb(21.011353%, 16.725159%, 44.464111%)" stop-opacity="1"/>
<stop offset="0.195313" stop-color="rgb(21.406555%, 16.600037%, 44.377136%)" stop-opacity="1"/>
<stop offset="0.199219" stop-color="rgb(21.731567%, 16.520691%, 44.412231%)" stop-opacity="1"/>
<stop offset="0.203125" stop-color="rgb(22.05658%, 16.441345%, 44.447327%)" stop-opacity="1"/>
<stop offset="0.207031" stop-color="rgb(22.419739%, 16.392517%, 44.508362%)" stop-opacity="1"/>
<stop offset="0.210938" stop-color="rgb(22.782898%, 16.342163%, 44.567871%)" stop-opacity="1"/>
<stop offset="0.214844" stop-color="rgb(23.126221%, 16.27655%, 44.577026%)" stop-opacity="1"/>
<stop offset="0.21875" stop-color="rgb(23.468018%, 16.209412%, 44.584656%)" stop-opacity="1"/>
<stop offset="0.222656" stop-color="rgb(23.799133%, 16.134644%, 44.569397%)" stop-opacity="1"/>
<stop offset="0.226563" stop-color="rgb(24.128723%, 16.05835%, 44.552612%)" stop-opacity="1"/>
<stop offset="0.230469" stop-color="rgb(24.488831%, 15.975952%, 44.535828%)" stop-opacity="1"/>
<stop offset="0.234375" stop-color="rgb(24.847412%, 15.893555%, 44.517517%)" stop-opacity="1"/>
<stop offset="0.238281" stop-color="rgb(25.283813%, 15.794373%, 44.499207%)" stop-opacity="1"/>
<stop offset="0.242188" stop-color="rgb(25.718689%, 15.693665%, 44.480896%)" stop-opacity="1"/>
<stop offset="0.246094" stop-color="rgb(26.043701%, 15.612793%, 44.515991%)" stop-opacity="1"/>
<stop offset="0.25" stop-color="rgb(26.370239%, 15.533447%, 44.552612%)" stop-opacity="1"/>
<stop offset="0.253906" stop-color="rgb(26.792908%, 15.435791%, 44.540405%)" stop-opacity="1"/>
<stop offset="0.257812" stop-color="rgb(27.21405%, 15.338135%, 44.528198%)" stop-opacity="1"/>
<stop offset="0.261719" stop-color="rgb(27.586365%, 15.252686%, 44.511414%)" stop-opacity="1"/>
<stop offset="0.265625" stop-color="rgb(27.957153%, 15.167236%, 44.493103%)" stop-opacity="1"/>
<stop offset="0.269531" stop-color="rgb(28.308105%, 15.101624%, 44.509888%)" stop-opacity="1"/>
<stop offset="0.273438" stop-color="rgb(28.657532%, 15.037537%, 44.526672%)" stop-opacity="1"/>
<stop offset="0.277344" stop-color="rgb(29.048157%, 14.976501%, 44.58313%)" stop-opacity="1"/>
<stop offset="0.28125" stop-color="rgb(29.438782%, 14.915466%, 44.639587%)" stop-opacity="1"/>
<stop offset="0.285156" stop-color="rgb(29.878235%, 14.808655%, 44.670105%)" stop-opacity="1"/>
<stop offset="0.289062" stop-color="rgb(30.316162%, 14.701843%, 44.702148%)" stop-opacity="1"/>
<stop offset="0.292969" stop-color="rgb(30.755615%, 14.593506%, 44.734192%)" stop-opacity="1"/>
<stop offset="0.296875" stop-color="rgb(31.193542%, 14.486694%, 44.766235%)" stop-opacity="1"/>
<stop offset="0.300781" stop-color="rgb(31.459045%, 14.419556%, 44.805908%)" stop-opacity="1"/>
<stop offset="0.304688" stop-color="rgb(31.726074%, 14.350891%, 44.845581%)" stop-opacity="1"/>
<stop offset="0.308594" stop-color="rgb(32.037354%, 14.297485%, 44.900513%)" stop-opacity="1"/>
<stop offset="0.3125" stop-color="rgb(32.348633%, 14.24408%, 44.955444%)" stop-opacity="1"/>
<stop offset="0.316406" stop-color="rgb(32.714844%, 14.181519%, 45.00885%)" stop-opacity="1"/>
<stop offset="0.320313" stop-color="rgb(33.079529%, 14.118958%, 45.063782%)" stop-opacity="1"/>
<stop offset="0.324219" stop-color="rgb(33.433533%, 14.03656%, 45.10498%)" stop-opacity="1"/>
<stop offset="0.328125" stop-color="rgb(33.786011%, 13.954163%, 45.144653%)" stop-opacity="1"/>
<stop offset="0.332031" stop-color="rgb(34.286499%, 13.874817%, 45.204163%)" stop-opacity="1"/>
<stop offset="0.335938" stop-color="rgb(34.785461%, 13.796997%, 45.262146%)" stop-opacity="1"/>
<stop offset="0.339844" stop-color="rgb(35.183716%, 13.742065%, 45.324707%)" stop-opacity="1"/>
<stop offset="0.34375" stop-color="rgb(35.58197%, 13.687134%, 45.388794%)" stop-opacity="1"/>
<stop offset="0.347656" stop-color="rgb(36.012268%, 13.597107%, 45.39032%)" stop-opacity="1"/>
<stop offset="0.351563" stop-color="rgb(36.444092%, 13.50708%, 45.391846%)" stop-opacity="1"/>
<stop offset="0.355469" stop-color="rgb(36.807251%, 13.441467%, 45.417786%)" stop-opacity="1"/>
<stop offset="0.359375" stop-color="rgb(37.168884%, 13.37738%, 45.4422%)" stop-opacity="1"/>
<stop offset="0.363281" stop-color="rgb(37.518311%, 13.33313%, 45.507812%)" stop-opacity="1"/>
<stop offset="0.367188" stop-color="rgb(37.869263%, 13.288879%, 45.573425%)" stop-opacity="1"/>
<stop offset="0.371094" stop-color="rgb(38.374329%, 13.204956%, 45.619202%)" stop-opacity="1"/>
<stop offset="0.375" stop-color="rgb(38.877869%, 13.122559%, 45.664978%)" stop-opacity="1"/>
<stop offset="0.378906" stop-color="rgb(39.332581%, 13.024902%, 45.588684%)" stop-opacity="1"/>
<stop offset="0.382813" stop-color="rgb(39.785767%, 12.928772%, 45.51239%)" stop-opacity="1"/>
<stop offset="0.386719" stop-color="rgb(40.19165%, 12.867737%, 45.558167%)" stop-opacity="1"/>
<stop offset="0.390625" stop-color="rgb(40.59906%, 12.806702%, 45.603943%)" stop-opacity="1"/>
<stop offset="0.394531" stop-color="rgb(41.030884%, 12.712097%, 45.646667%)" stop-opacity="1"/>
<stop offset="0.398438" stop-color="rgb(41.462708%, 12.619019%, 45.690918%)" stop-opacity="1"/>
<stop offset="0.402344" stop-color="rgb(41.891479%, 12.532043%, 45.73822%)" stop-opacity="1"/>
<stop offset="0.40625" stop-color="rgb(42.318726%, 12.443542%, 45.785522%)" stop-opacity="1"/>
<stop offset="0.410156" stop-color="rgb(42.707825%, 12.379456%, 45.84198%)" stop-opacity="1"/>
<stop offset="0.414062" stop-color="rgb(43.095398%, 12.313843%, 45.899963%)" stop-opacity="1"/>
<stop offset="0.417969" stop-color="rgb(43.438721%, 12.226868%, 45.941162%)" stop-opacity="1"/>
<stop offset="0.421875" stop-color="rgb(43.780518%, 12.139893%, 45.980835%)" stop-opacity="1"/>
<stop offset="0.425781" stop-color="rgb(44.302368%, 12.055969%, 46.038818%)" stop-opacity="1"/>
<stop offset="0.429688" stop-color="rgb(44.824219%, 11.97052%, 46.096802%)" stop-opacity="1"/>
<stop offset="0.433594" stop-color="rgb(45.252991%, 11.906433%, 46.159363%)" stop-opacity="1"/>
<stop offset="0.4375" stop-color="rgb(45.683289%, 11.842346%, 46.220398%)" stop-opacity="1"/>
<stop offset="0.441406" stop-color="rgb(46.16394%, 11.767578%, 46.279907%)" stop-opacity="1"/>
<stop offset="0.445313" stop-color="rgb(46.646118%, 11.691284%, 46.339417%)" stop-opacity="1"/>
<stop offset="0.449219" stop-color="rgb(47.128296%, 11.61499%, 46.398926%)" stop-opacity="1"/>
<stop offset="0.453125" stop-color="rgb(47.612%, 11.53717%, 46.458435%)" stop-opacity="1"/>
<stop offset="0.457031" stop-color="rgb(48.049927%, 11.471558%, 46.51947%)" stop-opacity="1"/>
<stop offset="0.460938" stop-color="rgb(48.486328%, 11.405945%, 46.582031%)" stop-opacity="1"/>
<stop offset="0.464844" stop-color="rgb(49.020386%, 11.317444%, 46.640015%)" stop-opacity="1"/>
<stop offset="0.46875" stop-color="rgb(49.554443%, 11.228943%, 46.696472%)" stop-opacity="1"/>
<stop offset="0.472656" stop-color="rgb(50.015259%, 11.122131%, 46.676636%)" stop-opacity="1"/>
<stop offset="0.476563" stop-color="rgb(50.4776%, 11.013794%, 46.656799%)" stop-opacity="1"/>
<stop offset="0.480469" stop-color="rgb(50.994873%, 10.913086%, 46.740723%)" stop-opacity="1"/>
<stop offset="0.484375" stop-color="rgb(51.512146%, 10.810852%, 46.82312%)" stop-opacity="1"/>
<stop offset="0.488281" stop-color="rgb(51.983643%, 10.726929%, 46.942139%)" stop-opacity="1"/>
<stop offset="0.492188" stop-color="rgb(52.456665%, 10.641479%, 47.059631%)" stop-opacity="1"/>
<stop offset="0.496094" stop-color="rgb(52.853394%, 10.565186%, 47.134399%)" stop-opacity="1"/>
<stop offset="0.5" stop-color="rgb(53.250122%, 10.487366%, 47.207642%)" stop-opacity="1"/>
<stop offset="0.503906" stop-color="rgb(53.607178%, 10.406494%, 47.210693%)" stop-opacity="1"/>
<stop offset="0.507813" stop-color="rgb(53.965759%, 10.325623%, 47.212219%)" stop-opacity="1"/>
<stop offset="0.511719" stop-color="rgb(54.391479%, 10.250854%, 47.335815%)" stop-opacity="1"/>
<stop offset="0.515625" stop-color="rgb(54.8172%, 10.176086%, 47.457886%)" stop-opacity="1"/>
<stop offset="0.519531" stop-color="rgb(55.351257%, 10.073853%, 47.575378%)" stop-opacity="1"/>
<stop offset="0.523438" stop-color="rgb(55.886841%, 9.973145%, 47.692871%)" stop-opacity="1"/>
<stop offset="0.527344" stop-color="rgb(56.492615%, 9.887695%, 47.824097%)" stop-opacity="1"/>
<stop offset="0.53125" stop-color="rgb(57.099915%, 9.802246%, 47.955322%)" stop-opacity="1"/>
<stop offset="0.535156" stop-color="rgb(57.652283%, 9.706116%, 48.013306%)" stop-opacity="1"/>
<stop offset="0.539063" stop-color="rgb(58.206177%, 9.611511%, 48.071289%)" stop-opacity="1"/>
<stop offset="0.542969" stop-color="rgb(58.676147%, 9.500122%, 48.048401%)" stop-opacity="1"/>
<stop offset="0.546875" stop-color="rgb(59.146118%, 9.388733%, 48.027039%)" stop-opacity="1"/>
<stop offset="0.550781" stop-color="rgb(59.605408%, 9.281921%, 48.013306%)" stop-opacity="1"/>
<stop offset="0.554688" stop-color="rgb(60.064697%, 9.176636%, 47.999573%)" stop-opacity="1"/>
<stop offset="0.558594" stop-color="rgb(60.386658%, 9.135437%, 48.066711%)" stop-opacity="1"/>
<stop offset="0.5625" stop-color="rgb(60.708618%, 9.094238%, 48.135376%)" stop-opacity="1"/>
<stop offset="0.566406" stop-color="rgb(61.158752%, 8.982849%, 48.178101%)" stop-opacity="1"/>
<stop offset="0.570313" stop-color="rgb(61.607361%, 8.869934%, 48.222351%)" stop-opacity="1"/>
<stop offset="0.574219" stop-color="rgb(62.059021%, 8.781433%, 48.277283%)" stop-opacity="1"/>
<stop offset="0.578125" stop-color="rgb(62.510681%, 8.692932%, 48.332214%)" stop-opacity="1"/>
<stop offset="0.582031" stop-color="rgb(62.916565%, 8.616638%, 48.35968%)" stop-opacity="1"/>
<stop offset="0.585938" stop-color="rgb(63.320923%, 8.540344%, 48.387146%)" stop-opacity="1"/>
<stop offset="0.589844" stop-color="rgb(63.723755%, 8.451843%, 48.388672%)" stop-opacity="1"/>
<stop offset="0.59375" stop-color="rgb(64.126587%, 8.364868%, 48.388672%)" stop-opacity="1"/>
<stop offset="0.597656" stop-color="rgb(64.692688%, 8.265686%, 48.448181%)" stop-opacity="1"/>
<stop offset="0.601563" stop-color="rgb(65.258789%, 8.166504%, 48.504639%)" stop-opacity="1"/>
<stop offset="0.605469" stop-color="rgb(65.827942%, 8.065796%, 48.562622%)" stop-opacity="1"/>
<stop offset="0.609375" stop-color="rgb(66.395569%, 7.965088%, 48.61908%)" stop-opacity="1"/>
<stop offset="0.613281" stop-color="rgb(66.889954%, 7.855225%, 48.612976%)" stop-opacity="1"/>
<stop offset="0.617188" stop-color="rgb(67.382812%, 7.743835%, 48.606873%)" stop-opacity="1"/>
<stop offset="0.621094" stop-color="rgb(67.858887%, 7.621765%, 48.622131%)" stop-opacity="1"/>
<stop offset="0.625" stop-color="rgb(68.333435%, 7.501221%, 48.63739%)" stop-opacity="1"/>
<stop offset="0.628906" stop-color="rgb(68.717957%, 7.402039%, 48.658752%)" stop-opacity="1"/>
<stop offset="0.632812" stop-color="rgb(69.100952%, 7.301331%, 48.680115%)" stop-opacity="1"/>
<stop offset="0.636719" stop-color="rgb(69.380188%, 7.235718%, 48.666382%)" stop-opacity="1"/>
<stop offset="0.640625" stop-color="rgb(69.659424%, 7.168579%, 48.654175%)" stop-opacity="1"/>
<stop offset="0.644531" stop-color="rgb(70.137024%, 7.054138%, 48.632812%)" stop-opacity="1"/>
<stop offset="0.648438" stop-color="rgb(70.613098%, 6.941223%, 48.61145%)" stop-opacity="1"/>
<stop offset="0.652344" stop-color="rgb(71.185303%, 6.825256%, 48.727417%)" stop-opacity="1"/>
<stop offset="0.65625" stop-color="rgb(71.755981%, 6.707764%, 48.841858%)" stop-opacity="1"/>
<stop offset="0.660156" stop-color="rgb(72.167969%, 6.614685%, 48.860168%)" stop-opacity="1"/>
<stop offset="0.664062" stop-color="rgb(72.579956%, 6.521606%, 48.876953%)" stop-opacity="1"/>
<stop offset="0.667969" stop-color="rgb(72.940063%, 6.434631%, 48.861694%)" stop-opacity="1"/>
<stop offset="0.671875" stop-color="rgb(73.297119%, 6.349182%, 48.84491%)" stop-opacity="1"/>
<stop offset="0.675781" stop-color="rgb(73.538208%, 6.291199%, 48.834229%)" stop-opacity="1"/>
<stop offset="0.679687" stop-color="rgb(73.777771%, 6.234741%, 48.823547%)" stop-opacity="1"/>
<stop offset="0.6875" stop-color="rgb(73.777771%, 6.234741%, 48.823547%)" stop-opacity="1"/>
<stop offset="0.75" stop-color="rgb(73.777771%, 6.234741%, 48.823547%)" stop-opacity="1"/>
<stop offset="1" stop-color="rgb(73.777771%, 6.234741%, 48.823547%)" stop-opacity="1"/>
</linearGradient>
</defs>

<g clip-path="url(#clip-0)">
<g clip-path="url(#clip-1)">
<path fill-rule="nonzero" fill="url(#linear-pattern-0)" d="M 2187.539062 1019.492188 L 1194.265625 137.199219 L 312.460938 1129.917969 L 1305.734375 2012.210938 Z M 2187.539062 1019.492188 "/>
</g>
</g>
<g clip-path="url(#clip-2)">
<g clip-path="url(#clip-3)">
<path fill-rule="nonzero" fill="url(#linear-pattern-1)" d="M 2037.726562 1070.605469 L 1346.914062 456.976562 L 734.054688 1146.925781 L 1424.867188 1760.554688 Z M 2037.726562 1070.605469 "/>
</g>
</g>
<path fill-rule="evenodd" fill="rgb(73.9151%, 6.234741%, 48.905945%)" fill-opacity="1" d="M 873.035156 1834.730469 L 911.539062 1834.730469 L 911.539062 1845.058594 L 898.953125 1845.058594 L 898.953125 1892.570312 L 885.621094 1892.570312 L 885.621094 1845.058594 L 873.035156 1845.058594 L 873.035156 1834.730469 "/>
<path fill-rule="evenodd" fill="rgb(73.9151%, 6.234741%, 48.905945%)" fill-opacity="1" d="M 952.695312 1834.730469 L 968.042969 1834.730469 L 985.976562 1892.570312 L 972.226562 1892.570312 L 968.890625 1879.648438 L 950.304688 1879.648438 L 946.804688 1892.570312 L 933.886719 1892.570312 Z M 960.140625 1846.121094 L 953.222656 1869.648438 L 966.292969 1869.648438 Z M 960.140625 1846.121094 "/>
<path fill-rule="evenodd" fill="rgb(73.9151%, 6.234741%, 48.905945%)" fill-opacity="1" d="M 1057.390625 1835.960938 L 1056.570312 1846.449219 C 1054.691406 1845.421875 1052.75 1844.671875 1050.710938 1844.191406 C 1048.679688 1843.71875 1046.398438 1843.480469 1043.910156 1843.480469 C 1038.539062 1843.480469 1034.378906 1845.230469 1031.449219 1848.730469 C 1028.519531 1852.230469 1027.050781 1857.191406 1027.050781 1863.621094 C 1027.050781 1870.160156 1028.300781 1875.160156 1030.808594 1878.621094 C 1033.328125 1882.078125 1036.949219 1883.820312 1041.699219 1883.820312 C 1042.5 1883.820312 1043.289062 1883.75 1044.089844 1883.601562 C 1044.878906 1883.441406 1045.710938 1883.210938 1046.550781 1882.871094 L 1046.550781 1869.230469 L 1039.128906 1869.230469 L 1039.128906 1859.480469 L 1059.140625 1859.480469 L 1059.140625 1890.398438 C 1056.800781 1891.398438 1054.109375 1892.171875 1051.050781 1892.691406 C 1048 1893.21875 1044.71875 1893.480469 1041.21875 1893.480469 C 1032.289062 1893.480469 1025.371094 1890.941406 1020.441406 1885.871094 C 1015.511719 1880.800781 1013.050781 1873.679688 1013.050781 1864.480469 C 1013.050781 1854.769531 1015.660156 1847.21875 1020.871094 1841.828125 C 1026.078125 1836.421875 1033.398438 1833.730469 1042.820312 1833.730469 C 1045.378906 1833.730469 1047.898438 1833.921875 1050.320312 1834.300781 C 1052.75 1834.671875 1055.109375 1835.230469 1057.390625 1835.960938 "/>
<path fill-rule="evenodd" fill="rgb(73.9151%, 6.234741%, 48.905945%)" fill-opacity="1" d="M 1093.960938 1834.730469 L 1107.210938 1834.730469 L 1107.210938 1882.070312 L 1126.128906 1882.070312 L 1126.128906 1892.570312 L 1093.960938 1892.570312 L 1093.960938 1834.730469 "/>
<path fill-rule="evenodd" fill="rgb(73.9151%, 6.234741%, 48.905945%)" fill-opacity="1" d="M 1157.101562 1834.730469 L 1170.351562 1834.730469 L 1170.351562 1892.570312 L 1157.101562 1892.570312 L 1157.101562 1834.730469 "/>
<path fill-rule="evenodd" fill="rgb(73.9151%, 6.234741%, 48.905945%)" fill-opacity="1" d="M 1206.5 1834.730469 L 1221.730469 1834.730469 L 1239.171875 1876.898438 L 1239.171875 1834.730469 L 1250.5 1834.730469 L 1250.5 1892.570312 L 1235.261719 1892.570312 L 1217.75 1850.308594 L 1217.75 1892.570312 L 1206.5 1892.570312 L 1206.5 1834.730469 "/>
<path fill-rule="evenodd" fill="rgb(73.9151%, 6.234741%, 48.905945%)" fill-opacity="1" d="M 1286.570312 1834.730469 L 1319.488281 1834.730469 L 1319.488281 1844.398438 L 1299.820312 1844.398438 L 1299.820312 1858.230469 L 1318.410156 1858.230469 L 1318.410156 1867.898438 L 1299.820312 1867.898438 L 1299.820312 1882.820312 L 1320.410156 1882.820312 L 1320.410156 1892.570312 L 1286.570312 1892.570312 L 1286.570312 1834.730469 "/>
<path fill-rule="evenodd" fill="rgb(73.9151%, 6.234741%, 48.905945%)" fill-opacity="1" d="M 1376.5 1834.730469 L 1389.75 1834.730469 L 1389.75 1857.480469 L 1403.828125 1857.480469 L 1403.828125 1834.730469 L 1417.078125 1834.730469 L 1417.078125 1892.570312 L 1403.828125 1892.570312 L 1403.828125 1867.980469 L 1389.75 1867.980469 L 1389.75 1892.570312 L 1376.5 1892.570312 L 1376.5 1834.730469 "/>
<path fill-rule="evenodd" fill="rgb(73.9151%, 6.234741%, 48.905945%)" fill-opacity="1" d="M 1453.238281 1834.730469 L 1486.160156 1834.730469 L 1486.160156 1844.398438 L 1466.488281 1844.398438 L 1466.488281 1858.230469 L 1485.078125 1858.230469 L 1485.078125 1867.898438 L 1466.488281 1867.898438 L 1466.488281 1882.820312 L 1487.078125 1882.820312 L 1487.078125 1892.570312 L 1453.238281 1892.570312 L 1453.238281 1834.730469 "/>
<path fill-rule="evenodd" fill="rgb(73.9151%, 6.234741%, 48.905945%)" fill-opacity="1" d="M 1521.230469 1834.730469 L 1534.890625 1834.730469 C 1535.601562 1834.730469 1536.300781 1834.71875 1537.039062 1834.691406 C 1537.78125 1834.660156 1538.171875 1834.648438 1538.21875 1834.648438 C 1545.578125 1834.648438 1550.929688 1835.878906 1554.289062 1838.371094 C 1557.640625 1840.851562 1559.320312 1844.808594 1559.320312 1850.238281 C 1559.320312 1853.800781 1558.398438 1856.730469 1556.558594 1859.039062 C 1554.710938 1861.339844 1552.011719 1862.929688 1548.488281 1863.800781 C 1550.21875 1864.230469 1551.601562 1865.050781 1552.609375 1866.25 C 1553.640625 1867.441406 1554.679688 1869.691406 1555.738281 1873.011719 L 1562.078125 1892.570312 L 1548.398438 1892.570312 L 1543.789062 1876.179688 C 1542.988281 1873.191406 1542.078125 1871.230469 1541.101562 1870.300781 C 1540.101562 1869.371094 1538.640625 1868.898438 1536.71875 1868.898438 L 1534.230469 1868.898438 L 1534.230469 1892.570312 L 1521.230469 1892.570312 Z M 1534.230469 1844.398438 L 1534.230469 1859.230469 L 1537.039062 1859.230469 C 1540.351562 1859.230469 1542.71875 1858.660156 1544.171875 1857.519531 C 1545.601562 1856.378906 1546.320312 1854.539062 1546.320312 1851.988281 C 1546.320312 1849.199219 1545.671875 1847.238281 1544.351562 1846.101562 C 1543.03125 1844.96875 1540.671875 1844.398438 1537.25 1844.398438 L 1534.230469 1844.398438 "/>
<path fill-rule="evenodd" fill="rgb(73.9151%, 6.234741%, 48.905945%)" fill-opacity="1" d="M 1593.128906 1834.730469 L 1626.050781 1834.730469 L 1626.050781 1844.398438 L 1606.378906 1844.398438 L 1606.378906 1858.230469 L 1624.960938 1858.230469 L 1624.960938 1867.898438 L 1606.378906 1867.898438 L 1606.378906 1882.820312 L 1626.960938 1882.820312 L 1626.960938 1892.570312 L 1593.128906 1892.570312 L 1593.128906 1834.730469 "/>
<path fill-rule="evenodd" fill="rgb(6.266785%, 5.734253%, 5.047607%)" fill-opacity="1" d="M 687.183594 1761.46875 L 686.355469 1761.46875 C 676.734375 1761.46875 669.640625 1758.550781 663.296875 1753.191406 L 644.335938 1785.910156 C 656.515625 1794.378906 670.429688 1798.679688 686.15625 1798.839844 L 687.417969 1798.839844 C 707.71875 1798.519531 725.140625 1791.308594 739.566406 1777.160156 C 754.269531 1762.730469 761.601562 1745.070312 761.601562 1724.179688 L 761.601562 1685.980469 L 760.894531 1610.929688 L 723.566406 1610.808594 L 724.234375 1686.578125 L 724.234375 1723.980469 C 724.234375 1744.050781 707.757812 1761.46875 687.183594 1761.46875 "/>
<path fill-rule="evenodd" fill="rgb(6.266785%, 5.734253%, 5.047607%)" fill-opacity="1" d="M 798.507812 1610.378906 L 798.507812 1797.179688 L 910.6875 1797.179688 L 910.6875 1760.050781 L 835.875 1760.050781 L 835.875 1722.410156 L 891.964844 1722.410156 L 891.964844 1685.121094 L 835.875 1685.121094 L 835.875 1647.671875 L 910.6875 1647.671875 L 910.6875 1610.378906 L 798.507812 1610.378906 "/>
<path fill-rule="evenodd" fill="rgb(6.266785%, 5.734253%, 5.047607%)" fill-opacity="1" d="M 940.773438 1610.808594 L 940.773438 1796.941406 L 1052.949219 1796.941406 L 1052.949219 1759.808594 L 978.140625 1759.808594 L 978.140625 1610.808594 L 940.773438 1610.808594 "/>
<path fill-rule="evenodd" fill="rgb(6.266785%, 5.734253%, 5.047607%)" fill-opacity="1" d="M 1083.039062 1610.808594 L 1083.039062 1796.941406 L 1195.21875 1796.941406 L 1195.21875 1759.808594 L 1120.410156 1759.808594 L 1120.410156 1610.808594 L 1083.039062 1610.808594 "/>
<path fill-rule="evenodd" fill="rgb(6.266785%, 5.734253%, 5.047607%)" fill-opacity="1" d="M 1177.851562 1610.808594 L 1235.46875 1717.160156 L 1235.46875 1796.941406 L 1272.601562 1796.941406 L 1272.601562 1717.160156 L 1330.308594 1610.808594 L 1287.941406 1610.808594 L 1254.039062 1675.378906 L 1220.140625 1610.808594 L 1177.851562 1610.808594 "/>
<path fill-rule="evenodd" fill="rgb(6.266785%, 5.734253%, 5.047607%)" fill-opacity="1" d="M 1360.480469 1610.378906 L 1360.480469 1797.179688 L 1397.839844 1797.179688 L 1397.839844 1722.410156 L 1453.929688 1722.410156 L 1453.929688 1685.121094 L 1397.839844 1685.121094 L 1397.839844 1647.671875 L 1472.660156 1647.671875 L 1472.660156 1610.378906 L 1360.480469 1610.378906 "/>
<path fill-rule="evenodd" fill="rgb(6.266785%, 5.734253%, 5.047607%)" fill-opacity="1" d="M 1502.738281 1796.941406 L 1540.109375 1796.941406 L 1540.109375 1610.808594 L 1502.738281 1610.808594 L 1502.738281 1796.941406 "/>
<path fill-rule="evenodd" fill="rgb(6.266785%, 5.734253%, 5.047607%)" fill-opacity="1" d="M 1629.121094 1760.480469 C 1618.640625 1760.480469 1607.359375 1752.011719 1607.359375 1741.601562 L 1570.269531 1749.519531 C 1574.53125 1777.230469 1600.511719 1798.359375 1629.238281 1798.359375 C 1660.539062 1798.359375 1688.71875 1773.019531 1688.71875 1741.601562 C 1688.71875 1715.660156 1667.988281 1697.769531 1644.539062 1690.988281 C 1631.609375 1687.128906 1610.441406 1682.671875 1610.441406 1665.878906 C 1610.441406 1655.550781 1618.988281 1646.960938 1629.359375 1646.960938 C 1639.570312 1646.960938 1648.121094 1655.550781 1648.121094 1665.761719 L 1685.25 1657.921875 C 1681.429688 1630.371094 1657.699219 1609.199219 1629.121094 1609.199219 C 1597.789062 1609.199219 1572.359375 1634.429688 1572.359375 1665.761719 C 1572.359375 1691.148438 1592.390625 1709.789062 1615.050781 1717.519531 C 1627.898438 1722.011719 1650.640625 1724.378906 1650.640625 1741.371094 C 1650.640625 1751.730469 1639.289062 1760.289062 1628.960938 1760.289062 L 1629.121094 1760.480469 "/>
<path fill-rule="evenodd" fill="rgb(6.266785%, 5.734253%, 5.047607%)" fill-opacity="1" d="M 1718.808594 1610.808594 L 1718.808594 1796.941406 L 1756.101562 1796.941406 L 1756.101562 1722.410156 L 1818.378906 1722.410156 L 1818.378906 1796.941406 L 1855.660156 1796.941406 L 1855.660156 1610.808594 L 1818.378906 1610.808594 L 1818.378906 1685.351562 L 1756.101562 1685.351562 L 1756.101562 1610.808594 L 1718.808594 1610.808594 "/>
</svg>
